<svg width="72" height="72" viewBox="0 0 72 72" fill="none" xmlns="http://www.w3.org/2000/svg">
<path d="M18 57H14C12.8954 57 12 56.1046 12 55V39M18 57V61.5C18 62.3284 18.6716 63 19.5 63V63C20.3284 63 21 62.3284 21 61.5V57M18 57H21M54 57H58C59.1046 57 60 56.1046 60 55V39M54 57V61.5C54 62.3284 53.3284 63 52.5 63V63C51.6716 63 51 62.3284 51 61.5V57M54 57H51M12 39V21M12 39H36M60 39V21M60 39H36M21 57H51M12 21V13C12 10.7909 13.7909 9 16 9H56C58.2091 9 60 10.7909 60 13V21M12 21H36M60 21H36M36 21V39" stroke="#222227" stroke-width="6" stroke-linecap="round" stroke-linejoin="round"/>
<path d="M24 48H24.003" stroke="#222227" stroke-width="6" stroke-linecap="round" stroke-linejoin="round"/>
<path d="M48 48H48.003" stroke="#222227" stroke-width="6" stroke-linecap="round" stroke-linejoin="round"/>
</svg>
