<svg width="72" height="72" viewBox="0 0 72 72" fill="none" xmlns="http://www.w3.org/2000/svg">
<path d="M42 63H30L28.3471 55.5619C26.3637 54.7854 24.5272 53.716 22.8908 52.4068L15.6172 54.6961L9.61719 44.3038L15.2348 39.151C15.0802 38.1232 15 37.0709 15 36C15 34.929 15.0802 33.8768 15.2348 32.8489L9.61719 27.6961L15.6172 17.3038L22.8909 19.5932C24.5272 18.284 26.3637 17.2146 28.3471 16.4381L30 9H42L43.6529 16.4381C45.6363 17.2146 47.4727 18.284 49.109 19.5931L56.3826 17.3038L62.3826 27.6961L56.7651 32.8487C56.9198 33.8767 57 34.929 57 36C57 37.071 56.9198 38.1233 56.7651 39.1512L62.3826 44.3038L56.3826 54.6961L49.1091 52.4068C47.4727 53.716 45.6363 54.7854 43.6529 55.5619L42 63Z" stroke="#222227" stroke-width="6" stroke-linecap="round" stroke-linejoin="round"/>
<circle cx="36" cy="36" r="9" stroke="#222227" stroke-width="6"/>
</svg>
